<mxfile host="app.diagrams.net" modified="2023-04-06T16:26:21.705Z" agent="Mozilla/5.0 (Windows NT 10.0; Win64; x64) AppleWebKit/537.36 (KHTML, like Gecko) Chrome/111.0.0.0 Safari/537.36" etag="4YgJe3U4LJHDEtt9WzdC" version="21.1.4" type="device">
  <diagram name="PÃ¡gina-1" id="A9dAfgG2m1cRDkcbamKd">
    <mxGraphModel dx="1434" dy="806" grid="1" gridSize="10" guides="1" tooltips="1" connect="1" arrows="1" fold="1" page="1" pageScale="1" pageWidth="827" pageHeight="1169" math="0" shadow="0">
      <root>
        <mxCell id="0" />
        <mxCell id="1" parent="0" />
        <mxCell id="W32sqwhF-LXEdaIEG1iD-4" style="edgeStyle=orthogonalEdgeStyle;rounded=0;orthogonalLoop=1;jettySize=auto;html=1;exitX=1;exitY=0.5;exitDx=0;exitDy=0;entryX=0;entryY=0.5;entryDx=0;entryDy=0;" parent="1" source="W32sqwhF-LXEdaIEG1iD-1" target="W32sqwhF-LXEdaIEG1iD-3" edge="1">
          <mxGeometry relative="1" as="geometry" />
        </mxCell>
        <mxCell id="W32sqwhF-LXEdaIEG1iD-1" value="Start" style="ellipse;whiteSpace=wrap;html=1;aspect=fixed;" parent="1" vertex="1">
          <mxGeometry x="130" y="180" width="50" height="50" as="geometry" />
        </mxCell>
        <mxCell id="W32sqwhF-LXEdaIEG1iD-2" value="End" style="ellipse;whiteSpace=wrap;html=1;aspect=fixed;" parent="1" vertex="1">
          <mxGeometry x="515" y="357.5" width="50" height="50" as="geometry" />
        </mxCell>
        <mxCell id="W32sqwhF-LXEdaIEG1iD-8" style="edgeStyle=orthogonalEdgeStyle;rounded=0;orthogonalLoop=1;jettySize=auto;html=1;exitX=1;exitY=0.5;exitDx=0;exitDy=0;entryX=0;entryY=0.5;entryDx=0;entryDy=0;" parent="1" source="W32sqwhF-LXEdaIEG1iD-3" target="W32sqwhF-LXEdaIEG1iD-5" edge="1">
          <mxGeometry relative="1" as="geometry" />
        </mxCell>
        <mxCell id="W32sqwhF-LXEdaIEG1iD-3" value="Author sends update" style="rounded=0;whiteSpace=wrap;html=1;" parent="1" vertex="1">
          <mxGeometry x="200" y="182.5" width="120" height="45" as="geometry" />
        </mxCell>
        <mxCell id="W32sqwhF-LXEdaIEG1iD-13" style="edgeStyle=orthogonalEdgeStyle;rounded=0;orthogonalLoop=1;jettySize=auto;html=1;exitX=1;exitY=0.5;exitDx=0;exitDy=0;entryX=0;entryY=0.5;entryDx=0;entryDy=0;" parent="1" source="W32sqwhF-LXEdaIEG1iD-5" target="W32sqwhF-LXEdaIEG1iD-6" edge="1">
          <mxGeometry relative="1" as="geometry" />
        </mxCell>
        <mxCell id="W32sqwhF-LXEdaIEG1iD-5" value="Author agent retrieves token" style="rounded=0;whiteSpace=wrap;html=1;" parent="1" vertex="1">
          <mxGeometry x="340" y="182.5" width="120" height="45" as="geometry" />
        </mxCell>
        <mxCell id="W32sqwhF-LXEdaIEG1iD-10" style="edgeStyle=orthogonalEdgeStyle;rounded=0;orthogonalLoop=1;jettySize=auto;html=1;exitX=1;exitY=0.5;exitDx=0;exitDy=0;entryX=0;entryY=0.5;entryDx=0;entryDy=0;" parent="1" source="W32sqwhF-LXEdaIEG1iD-6" target="W32sqwhF-LXEdaIEG1iD-7" edge="1">
          <mxGeometry relative="1" as="geometry" />
        </mxCell>
        <mxCell id="W32sqwhF-LXEdaIEG1iD-6" value="Contract verifies token and retrieves public key" style="rounded=0;whiteSpace=wrap;html=1;" parent="1" vertex="1">
          <mxGeometry x="480" y="182.5" width="120" height="45" as="geometry" />
        </mxCell>
        <mxCell id="W32sqwhF-LXEdaIEG1iD-14" style="edgeStyle=orthogonalEdgeStyle;rounded=0;orthogonalLoop=1;jettySize=auto;html=1;exitX=1;exitY=0.5;exitDx=0;exitDy=0;entryX=0;entryY=0.5;entryDx=0;entryDy=0;" parent="1" source="W32sqwhF-LXEdaIEG1iD-7" target="W32sqwhF-LXEdaIEG1iD-11" edge="1">
          <mxGeometry relative="1" as="geometry" />
        </mxCell>
        <mxCell id="W32sqwhF-LXEdaIEG1iD-7" value="Contract verifies manifest" style="rounded=0;whiteSpace=wrap;html=1;" parent="1" vertex="1">
          <mxGeometry x="200" y="270" width="120" height="45" as="geometry" />
        </mxCell>
        <mxCell id="W32sqwhF-LXEdaIEG1iD-15" style="edgeStyle=orthogonalEdgeStyle;rounded=0;orthogonalLoop=1;jettySize=auto;html=1;exitX=1;exitY=0.5;exitDx=0;exitDy=0;entryX=0;entryY=0.5;entryDx=0;entryDy=0;" parent="1" source="W32sqwhF-LXEdaIEG1iD-11" target="W32sqwhF-LXEdaIEG1iD-12" edge="1">
          <mxGeometry relative="1" as="geometry" />
        </mxCell>
        <mxCell id="W32sqwhF-LXEdaIEG1iD-11" value="Contract verifies payload" style="rounded=0;whiteSpace=wrap;html=1;" parent="1" vertex="1">
          <mxGeometry x="340" y="270" width="120" height="45" as="geometry" />
        </mxCell>
        <mxCell id="W32sqwhF-LXEdaIEG1iD-18" style="edgeStyle=orthogonalEdgeStyle;rounded=0;orthogonalLoop=1;jettySize=auto;html=1;exitX=1;exitY=0.5;exitDx=0;exitDy=0;entryX=0;entryY=0.5;entryDx=0;entryDy=0;" parent="1" source="W32sqwhF-LXEdaIEG1iD-12" target="W32sqwhF-LXEdaIEG1iD-16" edge="1">
          <mxGeometry relative="1" as="geometry" />
        </mxCell>
        <mxCell id="W32sqwhF-LXEdaIEG1iD-12" value="Contract stores manifest" style="rounded=0;whiteSpace=wrap;html=1;" parent="1" vertex="1">
          <mxGeometry x="480" y="270" width="120" height="45" as="geometry" />
        </mxCell>
        <mxCell id="W32sqwhF-LXEdaIEG1iD-19" style="edgeStyle=orthogonalEdgeStyle;rounded=0;orthogonalLoop=1;jettySize=auto;html=1;exitX=1;exitY=0.5;exitDx=0;exitDy=0;entryX=0;entryY=0.5;entryDx=0;entryDy=0;" parent="1" source="W32sqwhF-LXEdaIEG1iD-16" target="W32sqwhF-LXEdaIEG1iD-17" edge="1">
          <mxGeometry relative="1" as="geometry" />
        </mxCell>
        <mxCell id="W32sqwhF-LXEdaIEG1iD-16" value="Registration agent stores payload and obtains CID" style="rounded=0;whiteSpace=wrap;html=1;" parent="1" vertex="1">
          <mxGeometry x="200" y="360" width="120" height="45" as="geometry" />
        </mxCell>
        <mxCell id="W32sqwhF-LXEdaIEG1iD-20" style="edgeStyle=orthogonalEdgeStyle;rounded=0;orthogonalLoop=1;jettySize=auto;html=1;exitX=1;exitY=0.5;exitDx=0;exitDy=0;entryX=0;entryY=0.5;entryDx=0;entryDy=0;" parent="1" source="W32sqwhF-LXEdaIEG1iD-17" target="W32sqwhF-LXEdaIEG1iD-2" edge="1">
          <mxGeometry relative="1" as="geometry" />
        </mxCell>
        <mxCell id="W32sqwhF-LXEdaIEG1iD-17" value="Contract stores CID" style="rounded=0;whiteSpace=wrap;html=1;" parent="1" vertex="1">
          <mxGeometry x="340" y="359.5" width="120" height="45" as="geometry" />
        </mxCell>
      </root>
    </mxGraphModel>
  </diagram>
</mxfile>
